<svg id="Group_2107" data-name="Group 2107" xmlns="http://www.w3.org/2000/svg" xmlns:xlink="http://www.w3.org/1999/xlink" width="259.283" height="86.33" viewBox="0 0 259.283 86.33">
  <defs>
    <clipPath id="clip-path">
      <rect id="Rectangle_454" data-name="Rectangle 454" width="259.283" height="86.33" fill="none"/>
    </clipPath>
  </defs>
  <g id="Group_2106" data-name="Group 2106" clip-path="url(#clip-path)">
    <path id="Path_14985" data-name="Path 14985" d="M66.33,77.62H39.349L30.039,57.1h-.344V77.62H4.005v-35.9" transform="translate(-1.224 -12.746)" fill="none" stroke="#fff" stroke-miterlimit="10" stroke-width="2.398"/>
    <path id="Path_14986" data-name="Path 14986" d="M4.005,18.7V3.546h25.6c12.844,0,30.345,3.189,30.345,19.827" transform="translate(-1.224 -1.083)" fill="none" stroke="#fff" stroke-miterlimit="10" stroke-width="2.398"/>
    <path id="Path_14987" data-name="Path 14987" d="M45.664,38.447c4.051,0,5.862-2.155,5.862-4.828a5.954,5.954,0,0,0-5.862-6.131H41V38.447Z" transform="translate(-12.526 -8.399)" fill="none" stroke="#fff" stroke-miterlimit="10" stroke-width="2.398"/>
    <path id="Path_14988" data-name="Path 14988" d="M5.377,25.939A2.442,2.442,0,1,1,2.934,23.5a2.443,2.443,0,0,1,2.442,2.442" transform="translate(-0.15 -7.179)" fill="#fff"/>
    <circle id="Ellipse_7077" data-name="Ellipse 7077" cx="2.442" cy="2.442" r="2.442" transform="translate(0.341 16.317)" fill="none" stroke="#fff" stroke-miterlimit="10" stroke-width="0.983"/>
    <path id="Path_14989" data-name="Path 14989" d="M83.063,42.777a2.443,2.443,0,1,1-2.443-2.442,2.443,2.443,0,0,1,2.443,2.442" transform="translate(-23.886 -12.324)" fill="#fff"/>
    <circle id="Ellipse_7078" data-name="Ellipse 7078" cx="2.442" cy="2.442" r="2.442" transform="translate(54.291 28.011)" fill="none" stroke="#fff" stroke-miterlimit="10" stroke-width="0.983"/>
    <path id="Path_14990" data-name="Path 14990" d="M77.562,33.9a22.6,22.6,0,0,1-4.292,4.344l10.984,17.3.244.122,20.3-51.875,15.9-.107" transform="translate(-22.387 -1.124)" fill="none" stroke="#fff" stroke-miterlimit="10" stroke-width="2.398"/>
    <path id="Path_14991" data-name="Path 14991" d="M124.922,80.047H109.366l-3.024,9.34-14.608-.11" transform="translate(-28.028 -24.458)" fill="none" stroke="#fff" stroke-miterlimit="10" stroke-width="2.398"/>
    <path id="Path_14992" data-name="Path 14992" d="M152.563,12.489l20.05,56.256h-17.7L152.294,62.2" transform="translate(-46.532 -3.816)" fill="none" stroke="#fff" stroke-miterlimit="10" stroke-width="2.398"/>
    <path id="Path_14993" data-name="Path 14993" d="M138.225,47.808l-6.776-19.634h-.891l-7.311,19.634Z" transform="translate(-37.657 -8.608)" fill="none" stroke="#fff" stroke-miterlimit="10" stroke-width="2.398"/>
    <path id="Path_14994" data-name="Path 14994" d="M263.873,78.7h-15.5V45.081h-.624L237.345,78.7H225.071l-5.8-17.152h-.623" transform="translate(-66.806 -13.774)" fill="none" stroke="#fff" stroke-miterlimit="10" stroke-width="2.398"/>
    <path id="Path_14995" data-name="Path 14995" d="M203.825,39.522V66.1h-18.9V3.833h24.913L220.9,33.85,232.057,3.833h25.607V57.7" transform="translate(-56.503 -1.171)" fill="none" stroke="#fff" stroke-miterlimit="10" stroke-width="2.398"/>
    <path id="Path_14996" data-name="Path 14996" d="M350.31,35.088c0,12.365-7.2,21.705-24.905,21.705h-3.134V75.651H304.015" transform="translate(-92.889 -10.721)" fill="none" stroke="#fff" stroke-miterlimit="10" stroke-width="2.398"/>
    <path id="Path_14997" data-name="Path 14997" d="M295.884,56.769V3.833H322.92c13.277,0,20.648,5.254,23.5,13.1" transform="translate(-90.405 -1.171)" fill="none" stroke="#fff" stroke-miterlimit="10" stroke-width="2.398"/>
    <path id="Path_14998" data-name="Path 14998" d="M146.867,2.933A2.442,2.442,0,1,1,144.424.491a2.443,2.443,0,0,1,2.442,2.442" transform="translate(-43.381 -0.15)" fill="#fff"/>
    <circle id="Ellipse_7079" data-name="Ellipse 7079" cx="2.442" cy="2.442" r="2.442" transform="translate(98.601 0.341)" fill="none" stroke="#fff" stroke-miterlimit="10" stroke-width="0.983"/>
    <path id="Path_14999" data-name="Path 14999" d="M153.81,82.976a2.442,2.442,0,1,1-2.442-2.442,2.443,2.443,0,0,1,2.442,2.442" transform="translate(-45.503 -24.606)" fill="#fff"/>
    <circle id="Ellipse_7080" data-name="Ellipse 7080" cx="2.442" cy="2.442" r="2.442" transform="translate(103.422 55.928)" fill="none" stroke="#fff" stroke-miterlimit="10" stroke-width="0.983"/>
    <path id="Path_15000" data-name="Path 15000" d="M213.456,52.7a2.442,2.442,0,1,1-2.442-2.442,2.443,2.443,0,0,1,2.442,2.442" transform="translate(-63.727 -15.355)" fill="#fff"/>
    <circle id="Ellipse_7081" data-name="Ellipse 7081" cx="2.442" cy="2.442" r="2.442" transform="translate(144.844 34.9)" fill="none" stroke="#fff" stroke-miterlimit="10" stroke-width="0.983"/>
    <path id="Path_15001" data-name="Path 15001" d="M285.688,92.183a2.442,2.442,0,1,1-2.442-2.442,2.443,2.443,0,0,1,2.442,2.442" transform="translate(-85.797 -27.42)" fill="#fff"/>
    <circle id="Ellipse_7082" data-name="Ellipse 7082" cx="2.442" cy="2.442" r="2.442" transform="translate(195.006 62.322)" fill="none" stroke="#fff" stroke-miterlimit="10" stroke-width="0.983"/>
    <path id="Path_15002" data-name="Path 15002" d="M302.349,92.015a2.442,2.442,0,1,1-2.442-2.442,2.443,2.443,0,0,1,2.442,2.442" transform="translate(-90.888 -27.368)" fill="#fff"/>
    <circle id="Ellipse_7083" data-name="Ellipse 7083" cx="2.442" cy="2.442" r="2.442" transform="translate(206.576 62.205)" fill="none" stroke="#fff" stroke-miterlimit="10" stroke-width="0.983"/>
    <path id="Path_15003" data-name="Path 15003" d="M370.72,24.014a2.442,2.442,0,1,1-2.442-2.442,2.443,2.443,0,0,1,2.442,2.442" transform="translate(-111.778 -6.591)" fill="#fff"/>
    <circle id="Ellipse_7084" data-name="Ellipse 7084" cx="2.442" cy="2.442" r="2.442" transform="translate(254.057 14.981)" fill="none" stroke="#fff" stroke-miterlimit="10" stroke-width="0.983"/>
    <text id="Regional_Accelerator_and_Mentoring_Program" data-name="Regional Accelerator and Mentoring Program" transform="translate(0.864 79.4)" fill="#fff" font-size="12" font-family="Helvetica"><tspan x="0" y="0">Regional</tspan><tspan y="0" letter-spacing="-0.054em"> </tspan><tspan y="0">Accelerator and Mentoring Program</tspan></text>
    <path id="Path_15004" data-name="Path 15004" d="M334.706,38.109c4.051,0,5.862-2.155,5.862-4.828a5.954,5.954,0,0,0-5.862-6.131h-4.668V38.109Z" transform="translate(-100.84 -8.295)" fill="none" stroke="#fff" stroke-miterlimit="10" stroke-width="2.398"/>
  </g>
</svg>
