<svg width="200" height="118" viewBox="0 0 200 118" fill="none" xmlns="http://www.w3.org/2000/svg">
<path d="M113.459 96.142C121.179 96.142 121.259 108.051 113.4 108.051L118.921 114.553C120.645 116.669 118.138 119.013 116.059 116.899L109.549 109.254C108.909 108.484 108.424 107.845 108.424 106.791C108.424 105.48 109.393 105.055 110.593 105.055H113.827C117.539 105.054 117.783 99.6486 113.827 99.6481H105.19V116.033C105.19 118.271 101.684 118.306 101.684 116.067V97.816C101.684 96.6547 102.136 96.142 103.35 96.142H113.459Z" fill="#D9D9D9"/>
<path d="M42.7668 96.1421C50.8028 96.1423 50.834 108.561 42.7994 108.561H35.8229V115.838C35.8226 118.312 32.3854 118.374 32.3852 115.838V107.559C32.3853 105.946 32.8616 105.055 34.5547 105.055H43.1335C47.1322 105.055 46.8797 99.6482 43.1335 99.6482H33.9875C31.7974 99.6482 31.6151 96.1421 33.9533 96.1421H42.7668Z" fill="#D9D9D9"/>
<path d="M136.076 96.142C144.108 96.142 144.151 108.561 136.11 108.561H129.132V115.837C129.131 118.31 125.694 118.344 125.694 115.837V107.559C125.694 105.947 126.172 105.055 127.864 105.055H136.442C140.443 105.055 140.19 99.6481 136.442 99.6481H127.296C125.036 99.6481 125.02 96.1423 127.262 96.142H136.076Z" fill="#1EA5B4"/>
<path d="M54.9919 97.6449C54.9919 95.4213 58.4638 95.3996 58.4638 97.6449V105.055H67.3425V97.6449C67.3425 95.3923 70.7819 95.4366 70.7819 97.6449V115.971C70.7816 118.168 67.3428 118.221 67.3425 115.971V108.561H58.4638V115.971C58.4635 118.159 54.9922 118.275 54.9919 115.971V97.6449Z" fill="#D9D9D9"/>
<path d="M21.7069 97.6449C21.7069 95.3912 25.1463 95.4423 25.1463 97.6449V115.971C25.146 118.163 21.7072 118.222 21.7069 115.971V97.6449Z" fill="#D9D9D9"/>
<path d="M184.604 98.5625C183.531 96.6402 186.407 94.8249 187.589 96.851L192.178 104.708L196.717 96.8429C197.899 94.8248 200.911 96.6802 199.731 98.5674L193.905 107.951V115.971C193.905 118.163 190.466 118.222 190.466 115.971V107.948L184.604 98.5625Z" fill="#1EA5B4"/>
<path d="M171.995 98.2219C171.112 96.1618 174.436 95.0341 175.297 97.1183L182.898 115.357C183.743 117.471 180.451 118.577 179.581 116.47L179.569 116.441L178.565 114.136H167.724L166.666 116.429C165.756 118.476 162.447 117.494 163.347 115.392L167.113 107.035C168.022 104.99 171.401 105.961 170.448 108.028L170.431 108.062L170.417 108.098L169.113 111.298H177.437L172.003 98.2382L171.995 98.2219Z" fill="#1EA5B4"/>
<path d="M13.1868 96.1421C15.7822 96.1423 15.9013 99.7148 13.1868 99.7151C11.0345 99.7151 8.8052 99.7091 6.90475 100.863C4.99593 102.034 3.6056 104.048 3.6056 106.758C3.60571 108.699 4.34969 110.408 5.52739 111.673C7.51148 113.785 10.3642 113.97 13.0858 113.97C15.9098 113.97 15.8149 117.474 13.0858 117.474C9.29661 117.474 5.51602 116.845 2.80689 113.942C1.02642 111.931 8.82183e-05 109.394 0 106.692C0 103.316 1.51851 100.342 4.13046 98.3866C6.77066 96.4371 10.0102 96.1421 13.1868 96.1421Z" fill="#D9D9D9"/>
<path d="M93.2468 96.1421C95.4774 96.1426 95.5422 99.6476 93.2468 99.6482H81.3949V105.29H93.4457C95.3347 105.29 95.2465 108.361 93.4457 108.361H81.3949V113.97H93.3136C95.6247 113.97 95.6315 117.473 93.3136 117.474H79.6932C78.4647 117.474 77.9899 116.958 77.9898 115.738V97.878C77.9899 96.6452 78.4533 96.1421 79.6932 96.1421H93.2468Z" fill="#D9D9D9"/>
<path d="M148.301 97.6448C148.301 95.3917 151.706 95.4509 151.706 97.6448V113.969H157.013C159.105 113.969 159.115 117.474 157.013 117.474H150.004C148.776 117.474 148.301 116.958 148.301 115.738V97.6448Z" fill="#1EA5B4"/>
<path fill-rule="evenodd" clip-rule="evenodd" d="M105.746 28.1326C105.268 26.352 103.437 25.2955 101.656 25.7723C99.8279 26.2628 98.9237 28.0874 99.2956 29.8604C99.7841 31.6825 101.613 32.6027 103.384 32.2207C105.164 31.7433 106.222 29.913 105.746 28.1326Z" fill="#21AFB8"/>
<path fill-rule="evenodd" clip-rule="evenodd" d="M88.946 16.7783C89.4071 15.9806 90.4283 15.7079 91.2264 16.1686C92.0237 16.6296 92.2975 17.6495 91.8376 18.4474C91.3767 19.2455 90.3554 19.5192 89.5572 19.0586C88.7591 18.5977 88.4852 17.5765 88.946 16.7783Z" fill="#23B8BD"/>
<path fill-rule="evenodd" clip-rule="evenodd" d="M88.9939 39.2412L81.9423 42.8729C82.4349 43.1761 82.7377 43.7121 82.7377 44.2927C82.737 44.889 82.4183 45.441 81.9015 45.7385L79.0881 47.3555C78.5798 47.6556 78.2664 48.2021 78.2666 48.7931V55.8993V72.7805C78.2672 75.7494 79.8466 78.4951 82.4117 79.9901C84.9767 81.4841 88.1435 81.5035 90.7265 80.0406L99.0126 75.3451L123.844 61.274L140.801 51.6652C143.415 50.1834 145.032 47.4086 145.032 44.4035C145.032 41.3986 143.416 38.6237 140.802 37.1418L122.074 26.5136L111.925 20.7545L106.758 21.9503C107.958 22.67 108.987 23.6765 109.721 24.899C110.15 25.6147 110.479 26.4044 110.681 27.254C111.607 31.571 108.992 35.9011 104.68 37.0569C102.464 37.6503 100.218 37.2936 98.3731 36.237L93.1684 39.2412C91.8776 39.9862 90.2848 39.9862 88.9939 39.2412Z" fill="#1EA5B4"/>
<path fill-rule="evenodd" clip-rule="evenodd" d="M82.7377 44.2927L90.086 47.0662L78.2666 55.8993V48.7931C78.2664 48.2021 78.5798 47.6555 79.0881 47.3555L81.9015 45.7385C82.4183 45.441 82.737 44.889 82.7377 44.2927Z" fill="#1FA7B5"/>
<path d="M83.0714 35.8173L81.9424 42.8727C82.435 43.1758 82.7378 43.7119 82.7378 44.2925L90.0861 47.066L93.1685 39.241C91.8777 39.986 90.2849 39.986 88.994 39.241L83.0714 35.8173Z" fill="#21AFB8"/>
<path fill-rule="evenodd" clip-rule="evenodd" d="M79.1833 41.2803L81.9429 42.8727L88.9946 39.241L83.0719 35.8173L78.2672 37.9691L77.8271 41.2803C78.3207 40.9953 78.7054 41.0044 79.1833 41.2803Z" fill="#1EA5B4"/>
<path fill-rule="evenodd" clip-rule="evenodd" d="M80.1739 34.1423L83.0715 35.8173L81.9425 42.8727L79.1828 41.2802C78.705 41.0043 78.3202 40.9953 77.8267 41.2802L74.4542 43.2264L71.1191 37.4415L76.8356 34.1423C77.8683 33.5462 79.1412 33.5463 80.1739 34.1423Z" fill="#23B6BC"/>
<path fill-rule="evenodd" clip-rule="evenodd" d="M80.1742 34.1423L83.0718 35.8173L78.2671 37.9691L76.8359 34.1423C77.8686 33.5462 79.1415 33.5463 80.1742 34.1423Z" fill="#20AEB8"/>
<path fill-rule="evenodd" clip-rule="evenodd" d="M76.8356 34.1425L71.1191 37.4417L69.3848 43.2885L74.4541 43.2266L77.8266 41.2804L78.2667 37.9693L76.8356 34.1425Z" fill="#2ACFC7"/>
<path fill-rule="evenodd" clip-rule="evenodd" d="M67.0236 40.9273C68.1373 41.2265 69.0657 42.0947 69.3855 43.2884C69.5917 44.0579 69.5111 44.8367 69.2094 45.5115L71.1198 47.3553L74.2226 46.3121C74.4875 45.326 74.574 44.2818 74.4548 43.2264L71.1198 37.4415C69.8271 36.4875 68.2682 35.9099 66.6289 35.8173L67.0236 40.9273Z" fill="#2DD9CC"/>
<path fill-rule="evenodd" clip-rule="evenodd" d="M71.12 47.3555L69.2096 45.5118C68.8132 46.3985 68.035 47.1057 67.0237 47.3767C65.2431 47.8535 63.4128 46.7971 62.9357 45.0164C62.4587 43.2358 63.5155 41.4057 65.2959 40.9283C65.8831 40.771 66.4759 40.7804 67.0237 40.9276C68.1374 41.2267 69.0658 42.0949 69.3856 43.2886L71.12 37.4417C69.8273 36.4877 68.2684 35.9101 66.629 35.8175C65.766 35.7688 64.8806 35.8545 64.0001 36.0904C59.5481 37.2834 56.9067 41.8603 58.0994 46.3123C59.2923 50.7644 63.8691 53.4075 68.3212 52.2146C69.7851 51.8222 71.0531 51.064 72.0534 50.0647L71.12 47.3555Z" fill="#34F3D8"/>
<path fill-rule="evenodd" clip-rule="evenodd" d="M66.629 35.8175C65.766 35.7688 64.8806 35.8545 64.0001 36.0904C59.5481 37.2834 56.9067 41.8603 58.0994 46.3123C59.2923 50.7644 63.8691 53.4075 68.3212 52.2146C69.7851 51.8222 71.0531 51.064 72.0534 50.0647C73.0919 49.0272 73.8418 47.7299 74.2227 46.3123C74.4877 45.3263 74.5741 44.2821 74.455 43.2267L69.3856 43.2886C69.5918 44.0582 69.5113 44.8369 69.2096 45.5118C68.8132 46.3985 68.035 47.1057 67.0237 47.3767C65.2431 47.8535 63.4128 46.7971 62.9357 45.0164C62.4587 43.2358 63.5155 41.4057 65.2959 40.9283C65.8831 40.771 66.4759 40.7804 67.0237 40.9276L66.629 35.8175Z" fill="#31EBD4"/>
<path fill-rule="evenodd" clip-rule="evenodd" d="M71.12 47.3555L69.2096 45.5118C68.8132 46.3985 68.035 47.1057 67.0237 47.3767C65.2431 47.8535 63.4128 46.7971 62.9357 45.0164C62.4587 43.2358 63.5155 41.4057 65.2959 40.9283C65.8831 40.771 66.4759 40.7804 67.0237 40.9276L66.629 35.8175C65.766 35.7688 64.8806 35.8545 64.0001 36.0904C59.5481 37.2834 56.9067 41.8603 58.0994 46.3123C59.2923 50.7644 63.8691 53.4075 68.3212 52.2146C69.7851 51.8222 71.0531 51.064 72.0534 50.0647C73.0919 49.0272 73.8418 47.7299 74.2227 46.3123L71.12 47.3555Z" fill="#34F6D9"/>
<path fill-rule="evenodd" clip-rule="evenodd" d="M64.0001 36.0904C64.8806 35.8545 65.766 35.7688 66.629 35.8175L67.0237 40.9276C66.4759 40.7804 65.8831 40.771 65.2959 40.9283C63.5155 41.4057 62.4587 43.2358 62.9357 45.0164C63.4128 46.7971 65.2431 47.8535 67.0237 47.3767C68.035 47.1057 68.8132 46.3985 69.2096 45.5118L71.12 47.3555L72.0534 50.0647C71.0531 51.064 69.7851 51.8222 68.3212 52.2146C63.8691 53.4075 59.2923 50.7644 58.0994 46.3123C56.9067 41.8603 59.5481 37.2834 64.0001 36.0904Z" fill="#37FFDE"/>
<path fill-rule="evenodd" clip-rule="evenodd" d="M99.9492 21.0566C102.313 20.353 104.77 20.7581 106.758 21.9502C107.958 22.6699 108.987 23.6764 109.721 24.8989L111.925 20.7543L101.656 14.9266L99.9492 21.0566Z" fill="#20ABB6"/>
<path fill-rule="evenodd" clip-rule="evenodd" d="M94.728 20.118L99.9497 21.0566C102.314 20.353 104.771 20.7581 106.759 21.9502L111.926 20.7543L101.656 14.9266L94.9006 15.4351C95.5955 16.8774 95.5885 18.6273 94.728 20.118Z" fill="#22B4BB"/>
<path fill-rule="evenodd" clip-rule="evenodd" d="M101.656 14.9267L94.3172 10.7617L92.896 13.2769C93.7998 13.7989 94.4794 14.5604 94.9007 15.4351C95.5956 16.8774 95.5886 18.6274 94.7281 20.1181L95.4644 24.5449C96.4733 22.9424 98.0268 21.6777 99.9498 21.0566L101.656 14.9267Z" fill="#20A9B6"/>
<path fill-rule="evenodd" clip-rule="evenodd" d="M85.391 27.5219L95.464 24.5449C96.4729 22.9424 98.0264 21.6778 99.9494 21.0566L94.7277 20.1181C93.3448 22.5119 90.2827 23.3321 87.8882 21.9503C86.3724 21.0749 85.4857 19.5255 85.391 17.8997L81.9424 21.4359L85.391 27.5219Z" fill="#23B8BD"/>
<path fill-rule="evenodd" clip-rule="evenodd" d="M85.3913 17.8995L79.3842 14.4315L76.4736 22.3735L85.3913 27.5218L90.0865 30.2323C90.8827 30.692 91.297 30.6836 92.0787 30.2323L94.1778 29.0208C94.172 27.4135 94.6335 25.8646 95.4644 24.5448L94.7281 20.118C93.3452 22.5118 90.283 23.3319 87.8885 21.9501C86.3728 21.0747 85.4861 19.5254 85.3913 17.8995Z" fill="#23B7BC"/>
<path fill-rule="evenodd" clip-rule="evenodd" d="M95.4642 24.5447C94.6333 25.8645 94.1718 27.4134 94.1776 29.0207L92.0785 30.2322C91.2968 30.6835 90.8825 30.6919 90.0862 30.2322L85.3911 27.5217L95.4642 24.5447Z" fill="#26C1C1"/>
<path fill-rule="evenodd" clip-rule="evenodd" d="M81.9427 21.4358L85.3913 17.8995L79.3842 14.4315L76.4736 22.3735L85.3913 27.5218L81.9427 21.4358Z" fill="#29CCC6"/>
<path fill-rule="evenodd" clip-rule="evenodd" d="M69.209 18.1796L76.4736 22.3735L81.9427 21.4358L85.3913 17.8995L79.3841 14.4315L72.8193 14.9266L69.209 18.1796Z" fill="#26C1C1"/>
<path fill-rule="evenodd" clip-rule="evenodd" d="M79.384 14.4316L73.3768 10.9636L72.8192 14.9267L67.7451 12.5203L69.2089 18.1797L76.4735 22.3736L79.384 14.4316Z" fill="#29CDC6"/>
<path fill-rule="evenodd" clip-rule="evenodd" d="M67.7451 12.5201L72.8192 14.9265L79.384 14.4315L73.3768 10.9635L68.4167 9.65393C68.4838 10.6172 68.2695 11.6123 67.7451 12.5201Z" fill="#2CD7CB"/>
<path fill-rule="evenodd" clip-rule="evenodd" d="M72.8194 14.9265L73.377 10.9635L68.4169 9.65393C68.4839 10.6172 68.2696 11.6123 67.7453 12.5201C67.072 13.6859 66.0007 14.4785 64.8022 14.8254L69.2091 18.1795L72.8194 14.9265Z" fill="#2FE1D0"/>
<path fill-rule="evenodd" clip-rule="evenodd" d="M69.2094 18.1798L67.7457 12.5204C67.0724 13.6862 66.0011 14.4788 64.8026 14.8257L63.248 20.0306C65.3719 20.0619 67.4679 19.4155 69.2094 18.1798Z" fill="#33F2D7"/>
<path fill-rule="evenodd" clip-rule="evenodd" d="M58.4016 18.6899C59.9318 19.5731 61.598 20.0061 63.2473 20.0304C65.3712 20.0618 67.4671 19.4154 69.2087 18.1797L64.8019 14.8256C63.5387 15.1912 62.1342 15.0618 60.9054 14.3524C58.5104 12.9699 57.6894 9.90797 59.0716 7.51285C60.4892 5.05633 63.753 4.27137 66.1328 5.81437C67.5131 6.70933 68.3112 8.14255 68.4165 9.65408L72.819 6.59678C72.0445 4.45782 70.5409 2.57009 68.4165 1.34323C63.6266 -1.42215 57.5013 0.219376 54.7357 5.00914C51.9705 9.79906 53.6118 15.9244 58.4016 18.6899Z" fill="#35F8DA"/>
<path fill-rule="evenodd" clip-rule="evenodd" d="M72.8192 6.5968L68.4167 9.6541C68.4838 10.6174 68.2695 11.6125 67.7451 12.5203L72.8192 14.9267L73.3768 10.9636C73.5172 9.47684 73.3215 7.98399 72.8192 6.5968Z" fill="#32ECD5"/>
<path fill-rule="evenodd" clip-rule="evenodd" d="M63.2473 20.0304L64.8019 14.8256C63.5387 15.1912 62.1342 15.0618 60.9054 14.3524C58.5104 12.9699 57.6894 9.90797 59.0716 7.51285C60.4892 5.05633 63.753 4.27137 66.1328 5.81437C67.5131 6.70933 68.3112 8.14255 68.4165 9.65408L73.3766 10.9636C73.517 9.47682 73.3213 7.98397 72.819 6.59678C72.0445 4.45782 70.5409 2.57009 68.4165 1.34323C63.6266 -1.42215 57.5013 0.219376 54.7357 5.00914C51.9705 9.79906 53.6118 15.9244 58.4016 18.6899C59.9318 19.5731 61.598 20.0061 63.2473 20.0304Z" fill="#34F5D9"/>
<path fill-rule="evenodd" clip-rule="evenodd" d="M54.7357 5.00914C57.5013 0.219376 63.6266 -1.42215 68.4165 1.34323C70.5409 2.57009 72.0445 4.45782 72.819 6.59678L68.4165 9.65408C68.3112 8.14255 67.5131 6.70933 66.1328 5.81437C63.753 4.27137 60.4892 5.05633 59.0716 7.51285C57.6894 9.90797 58.5104 12.9699 60.9054 14.3524C62.1342 15.0618 63.5387 15.1912 64.8019 14.8256L63.2473 20.0304C61.598 20.0061 59.9318 19.5731 58.4016 18.6899C53.6118 15.9244 51.9705 9.79906 54.7357 5.00914Z" fill="#37FFDE"/>
<path fill-rule="evenodd" clip-rule="evenodd" d="M88.1538 13.1335C89.6065 12.41 91.3847 12.4049 92.8955 13.2769C93.7994 13.7989 94.4789 14.5605 94.9003 15.4351L101.656 14.9267L94.3167 10.7618L88.994 10.0894L88.1538 13.1335Z" fill="#23B8BD"/>
<path fill-rule="evenodd" clip-rule="evenodd" d="M86.9774 6.5968L84.2227 10.8642L88.1537 13.1335C89.6065 12.41 91.3847 12.4049 92.8955 13.2769L94.3166 10.7617L86.9774 6.5968Z" fill="#28CAC5"/>
<path fill-rule="evenodd" clip-rule="evenodd" d="M88.1537 13.1335L88.9939 10.0893L94.3166 10.7617L86.9774 6.5968L84.2227 10.8642L88.1537 13.1335Z" fill="#2BD2C9"/>
<path fill-rule="evenodd" clip-rule="evenodd" d="M82.7381 9.65419L84.2231 10.8643L88.1541 13.1335L88.9943 10.0894L86.9778 6.5969L83.5922 5.9563C83.8306 6.84638 83.302 7.76144 82.4121 8.00034L82.7381 9.65419Z" fill="#2EE1CF"/>
<path fill-rule="evenodd" clip-rule="evenodd" d="M86.7038 4.77612C85.8703 2.4216 83.2901 0.854187 80.6844 1.55194C78.0718 2.3254 76.4244 4.99703 77.144 7.68407C77.7411 9.91194 79.7952 11.3335 81.9427 11.3757C82.7118 11.3909 83.4928 11.2291 84.2231 10.8642L86.9779 6.59685C87.0043 5.95796 86.9049 5.34414 86.7038 4.77612ZM83.5923 5.95625C83.8307 6.84633 83.3021 7.76139 82.4122 8.00029C81.5221 8.2383 80.6068 7.71016 80.3682 6.82016C80.13 5.93016 80.6585 5.015 81.5483 4.77612C82.4383 4.53808 83.3536 5.06638 83.5923 5.95625Z" fill="#31EAD4"/>
<path fill-rule="evenodd" clip-rule="evenodd" d="M77.144 7.68407C77.7411 9.91194 79.7952 11.3335 81.9427 11.3757C82.7118 11.3909 83.4928 11.2291 84.2231 10.8642L82.7382 9.65414L82.4122 8.00029C81.5221 8.2383 80.6068 7.71016 80.3682 6.82016C80.13 5.93016 80.6585 5.015 81.5483 4.77612C82.4383 4.53808 83.3536 5.06638 83.5923 5.95625L86.7038 4.77612C85.8703 2.4216 83.2901 0.854187 80.6844 1.55194C78.0718 2.3254 76.4244 4.99703 77.144 7.68407Z" fill="#35F6D9"/>
<path fill-rule="evenodd" clip-rule="evenodd" d="M81.5483 4.77612C82.4383 4.53809 83.3536 5.06638 83.5923 5.95625L86.9779 6.59685C87.0043 5.95796 86.9049 5.34414 86.7038 4.77612C85.8703 2.4216 83.2901 0.854187 80.6844 1.55194C78.0718 2.3254 76.4244 4.99703 77.144 7.68407C77.7411 9.91194 79.7952 11.3335 81.9427 11.3757L82.7382 9.65414L82.4122 8.00029C81.5221 8.23831 80.6068 7.71016 80.3682 6.82016C80.13 5.93016 80.6585 5.015 81.5483 4.77612Z" fill="#34F2D8"/>
<path fill-rule="evenodd" clip-rule="evenodd" d="M80.6844 1.55194C83.2901 0.854187 85.8703 2.4216 86.7038 4.77612L83.5923 5.95625C83.3536 5.06638 82.4383 4.53809 81.5483 4.77612C80.6585 5.015 80.13 5.93016 80.3682 6.82016C80.6068 7.71016 81.5221 8.23831 82.4122 8.00029L82.7382 9.65414L81.9427 11.3757C79.7952 11.3335 77.7411 9.91194 77.144 7.68407C76.4244 4.99703 78.0718 2.3254 80.6844 1.55194Z" fill="#37FFDE"/>
</svg>
