<svg width="200" height="26" viewBox="0 0 200 26" fill="none" xmlns="http://www.w3.org/2000/svg">
<path d="M94.3183 3.70924C100.736 3.70924 100.802 13.6091 94.2696 13.6091L98.8591 19.0143C100.292 20.7731 98.2083 22.7217 96.4796 20.9642L91.0676 14.6091C90.5358 13.9694 90.1327 13.4378 90.1326 12.5617C90.1329 11.4723 90.9381 11.1186 91.9362 11.1186H94.6246C97.7102 11.1182 97.9132 6.62431 94.6246 6.62391H87.4443V20.2447C87.4441 22.1053 84.5298 22.1345 84.5296 20.2731V5.10086C84.5296 4.13548 84.9056 3.70924 85.9144 3.70924H94.3183Z" fill="#D9D9D9"/>
<path d="M35.552 3.70932C42.2323 3.70948 42.2582 14.0333 35.5791 14.0333H29.7795V20.0822C29.7793 22.1392 26.922 22.1907 26.9218 20.0822V13.2C26.9219 11.859 27.3178 11.1186 28.7253 11.1186H35.8568C39.1809 11.1186 38.971 6.62399 35.8568 6.62399H28.2538C26.4331 6.62399 26.2816 3.70936 28.2253 3.70932H35.552Z" fill="#D9D9D9"/>
<path d="M146.86 3.70924C153.537 3.70924 153.573 14.033 146.888 14.0332H141.087V20.0821C141.087 22.1372 138.23 22.166 138.229 20.0821V13.1999C138.23 11.8599 138.627 11.1186 140.033 11.1186H147.165C150.49 11.1186 150.28 6.62391 147.165 6.62391H139.561C137.683 6.62391 137.669 3.70951 139.533 3.70924H146.86Z" fill="#1EA5B4"/>
<path d="M45.7147 4.95866C45.7147 3.11015 48.6009 3.09211 48.6009 4.95866V11.1186H55.9818V4.95866C55.9818 3.08602 58.8409 3.1229 58.8409 4.95866V20.1933C58.8406 22.0198 55.982 22.0633 55.9818 20.1933V14.0333H48.6009V20.1933C48.6007 22.0119 45.7149 22.1083 45.7147 20.1933V4.95866Z" fill="#D9D9D9"/>
<path d="M18.0449 4.95866C18.0449 3.08512 20.9041 3.12757 20.9041 4.95866V20.1933C20.9038 22.0152 18.0452 22.0641 18.0449 20.1933V4.95866Z" fill="#D9D9D9"/>
<path d="M187.202 5.72146C186.309 4.12343 188.7 2.61435 189.683 4.29868L193.497 10.8299L197.271 4.2919C198.254 2.61431 200.757 4.15667 199.776 5.72553L194.933 13.5264V20.1932C194.933 22.0151 192.075 22.0641 192.074 20.1932V13.5237L187.202 5.72146Z" fill="#1EA5B4"/>
<path d="M176.719 5.43826C175.986 3.72569 178.749 2.78831 179.464 4.5209L185.783 19.6823C186.486 21.4398 183.749 22.3595 183.025 20.6078L183.016 20.5834L182.181 18.6674H173.169L172.29 20.574C171.533 22.2754 168.782 21.4593 169.531 19.7122L172.661 12.7649C173.417 11.0645 176.226 11.8721 175.433 13.5901L175.42 13.6186L175.407 13.6484L174.323 16.3083H181.244L176.726 5.45181L176.719 5.43826Z" fill="#1EA5B4"/>
<path d="M10.9622 3.70932C13.1197 3.70951 13.2187 6.67936 10.9622 6.67955C9.173 6.67955 7.31975 6.67455 5.73991 7.63349C4.15311 8.60747 2.99733 10.2812 2.99733 12.5346C2.99742 14.1475 3.61589 15.5685 4.59491 16.6201C6.24428 18.3757 8.61578 18.5293 10.8782 18.5293C13.2258 18.5293 13.1469 21.4426 10.8782 21.4426C7.72826 21.4426 4.58546 20.9193 2.33336 18.5063C0.853265 16.835 7.33358e-05 14.7257 0 12.4791C0 9.67271 1.26233 7.20056 3.43365 5.5752C5.62844 3.95461 8.32148 3.70932 10.9622 3.70932Z" fill="#D9D9D9"/>
<path d="M77.5159 3.70932C79.3702 3.70975 79.424 6.62349 77.5159 6.62399H67.6635V11.3138H77.6812C79.2516 11.3138 79.1782 13.8666 77.6812 13.8666H67.6635V18.5293H77.5715C79.4926 18.5298 79.4983 21.4421 77.5715 21.4426H66.2488C65.2276 21.4426 64.8329 21.0136 64.8328 19.9995V5.15243C64.8329 4.12761 65.2181 3.70932 66.2488 3.70932H77.5159Z" fill="#D9D9D9"/>
<path d="M157.022 4.95858C157.022 3.08555 159.853 3.13478 159.853 4.95858V18.5292H164.265C166.004 18.5292 166.012 21.4425 164.265 21.4425H158.438C157.417 21.4425 157.022 21.0136 157.022 19.9994V4.95858Z" fill="#1EA5B4"/>
<path fill-rule="evenodd" clip-rule="evenodd" d="M119.557 8.74284C119.409 8.18948 118.84 7.86117 118.286 8.00935C117.718 8.16177 117.437 8.72879 117.553 9.2798C117.705 9.84605 118.273 10.132 118.823 10.0133C119.377 9.86495 119.705 9.29614 119.557 8.74284Z" fill="#21AFB8"/>
<path fill-rule="evenodd" clip-rule="evenodd" d="M114.336 5.21426C114.48 4.96637 114.797 4.88164 115.045 5.02481C115.293 5.16805 115.378 5.48501 115.235 5.73298C115.092 5.981 114.774 6.06605 114.526 5.92294C114.278 5.77969 114.193 5.46233 114.336 5.21426Z" fill="#23B8BD"/>
<path fill-rule="evenodd" clip-rule="evenodd" d="M114.351 12.195L112.16 13.3237C112.313 13.4179 112.407 13.5845 112.407 13.7649C112.407 13.9502 112.308 14.1218 112.147 14.2142L111.273 14.7167C111.115 14.81 111.018 14.9798 111.018 15.1635V17.3719V22.618C111.018 23.5407 111.509 24.394 112.306 24.8586C113.103 25.3229 114.087 25.3289 114.89 24.8743L117.465 23.415L125.182 19.0422L130.451 16.0561C131.264 15.5955 131.766 14.7332 131.767 13.7993C131.766 12.8655 131.264 12.0032 130.452 11.5426L124.632 8.23972L121.478 6.44994L119.872 6.82157C120.245 7.04523 120.565 7.35801 120.793 7.73795C120.926 7.96036 121.028 8.20579 121.091 8.46981C121.379 9.81138 120.566 11.157 119.226 11.5163C118.537 11.7007 117.839 11.5898 117.266 11.2615L115.649 12.195C115.248 12.4266 114.753 12.4266 114.351 12.195Z" fill="#1EA5B4"/>
<path fill-rule="evenodd" clip-rule="evenodd" d="M112.407 13.7649L114.691 14.6268L111.018 17.3719V15.1635C111.018 14.9798 111.115 14.81 111.273 14.7167L112.147 14.2142C112.308 14.1217 112.407 13.9502 112.407 13.7649Z" fill="#1FA7B5"/>
<path d="M112.511 11.1309L112.16 13.3235C112.313 13.4177 112.407 13.5842 112.407 13.7647L114.691 14.6266L115.649 12.1948C115.248 12.4264 114.753 12.4264 114.352 12.1948L112.511 11.1309Z" fill="#21AFB8"/>
<path fill-rule="evenodd" clip-rule="evenodd" d="M111.303 12.8286L112.16 13.3235L114.352 12.1948L112.511 11.1309L111.018 11.7996L110.881 12.8286C111.035 12.74 111.154 12.7428 111.303 12.8286Z" fill="#1EA5B4"/>
<path fill-rule="evenodd" clip-rule="evenodd" d="M111.61 10.6104L112.511 11.1309L112.16 13.3235L111.302 12.8286C111.154 12.7429 111.034 12.7401 110.881 12.8286L109.833 13.4334L108.796 11.6356L110.573 10.6104C110.894 10.4251 111.289 10.4251 111.61 10.6104Z" fill="#23B6BC"/>
<path fill-rule="evenodd" clip-rule="evenodd" d="M111.611 10.6104L112.512 11.1309L111.018 11.7996L110.574 10.6104C110.895 10.4251 111.29 10.4251 111.611 10.6104Z" fill="#20AEB8"/>
<path fill-rule="evenodd" clip-rule="evenodd" d="M110.573 10.6105L108.796 11.6357L108.257 13.4528L109.833 13.4335L110.881 12.8287L111.018 11.7997L110.573 10.6105Z" fill="#2ACFC7"/>
<path fill-rule="evenodd" clip-rule="evenodd" d="M107.524 12.7189C107.87 12.8119 108.159 13.0817 108.258 13.4526C108.322 13.6918 108.297 13.9338 108.203 14.1435L108.797 14.7165L109.761 14.3923C109.844 14.0859 109.87 13.7614 109.833 13.4334L108.797 11.6356C108.395 11.3391 107.911 11.1596 107.401 11.1309L107.524 12.7189Z" fill="#2DD9CC"/>
<path fill-rule="evenodd" clip-rule="evenodd" d="M108.797 14.7167L108.203 14.1437C108.08 14.4193 107.838 14.6391 107.524 14.7233C106.97 14.8714 106.401 14.5431 106.253 13.9898C106.105 13.4364 106.433 12.8677 106.987 12.7193C107.169 12.6704 107.353 12.6733 107.524 12.7191C107.87 12.812 108.158 13.0819 108.258 13.4528L108.797 11.6358C108.395 11.3393 107.91 11.1598 107.401 11.131C107.133 11.1159 106.858 11.1425 106.584 11.2159C105.2 11.5866 104.379 13.0089 104.75 14.3925C105.121 15.7761 106.543 16.5975 107.927 16.2267C108.382 16.1048 108.776 15.8692 109.087 15.5586L108.797 14.7167Z" fill="#34F3D8"/>
<path fill-rule="evenodd" clip-rule="evenodd" d="M107.401 11.131C107.133 11.1159 106.858 11.1425 106.584 11.2159C105.2 11.5866 104.379 13.0089 104.75 14.3925C105.121 15.7761 106.543 16.5975 107.927 16.2267C108.382 16.1048 108.776 15.8692 109.087 15.5586C109.409 15.2362 109.642 14.833 109.761 14.3925C109.843 14.0861 109.87 13.7616 109.833 13.4336L108.258 13.4528C108.322 13.692 108.297 13.934 108.203 14.1437C108.08 14.4193 107.838 14.6391 107.524 14.7233C106.97 14.8714 106.401 14.5431 106.253 13.9898C106.105 13.4364 106.433 12.8677 106.987 12.7193C107.169 12.6704 107.353 12.6733 107.524 12.7191L107.401 11.131Z" fill="#31EBD4"/>
<path fill-rule="evenodd" clip-rule="evenodd" d="M108.797 14.7167L108.203 14.1437C108.08 14.4193 107.838 14.6391 107.524 14.7233C106.97 14.8714 106.401 14.5431 106.253 13.9898C106.105 13.4364 106.433 12.8677 106.987 12.7193C107.169 12.6704 107.353 12.6733 107.524 12.7191L107.401 11.131C107.133 11.1159 106.858 11.1425 106.584 11.2159C105.2 11.5866 104.379 13.0089 104.75 14.3925C105.121 15.7761 106.543 16.5975 107.927 16.2267C108.382 16.1048 108.776 15.8692 109.087 15.5586C109.409 15.2362 109.642 14.833 109.761 14.3925L108.797 14.7167Z" fill="#34F6D9"/>
<path fill-rule="evenodd" clip-rule="evenodd" d="M106.584 11.2159C106.858 11.1425 107.133 11.1159 107.401 11.131L107.524 12.7191C107.353 12.6733 107.169 12.6704 106.987 12.7193C106.433 12.8677 106.105 13.4364 106.253 13.9898C106.401 14.5431 106.97 14.8714 107.524 14.7233C107.838 14.6391 108.08 14.4193 108.203 14.1437L108.797 14.7167L109.087 15.5586C108.776 15.8692 108.382 16.1048 107.927 16.2267C106.543 16.5975 105.121 15.7761 104.75 14.3925C104.379 13.0089 105.2 11.5866 106.584 11.2159Z" fill="#37FFDE"/>
<path fill-rule="evenodd" clip-rule="evenodd" d="M117.756 6.54379C118.491 6.32516 119.255 6.45104 119.872 6.8215C120.245 7.04515 120.565 7.35794 120.793 7.73787L121.478 6.44987L118.287 4.63879L117.756 6.54379Z" fill="#20ABB6"/>
<path fill-rule="evenodd" clip-rule="evenodd" d="M116.134 6.25213L117.757 6.54379C118.491 6.32516 119.255 6.45104 119.873 6.8215L121.478 6.44987L118.287 4.63879L116.187 4.7968C116.403 5.24504 116.401 5.78886 116.134 6.25213Z" fill="#22B4BB"/>
<path fill-rule="evenodd" clip-rule="evenodd" d="M118.287 4.63869L116.006 3.34436L115.564 4.12599C115.845 4.28823 116.057 4.52489 116.187 4.7967C116.403 5.24494 116.401 5.78876 116.134 6.25203L116.363 7.62775C116.676 7.12974 117.159 6.73672 117.757 6.54369L118.287 4.63869Z" fill="#20A9B6"/>
<path fill-rule="evenodd" clip-rule="evenodd" d="M113.232 8.55292L116.362 7.62777C116.676 7.12976 117.159 6.73674 117.756 6.54372L116.134 6.25205C115.704 6.99597 114.752 7.25085 114.008 6.82142C113.537 6.54938 113.261 6.0679 113.232 5.56262L112.16 6.66158L113.232 8.55292Z" fill="#23B8BD"/>
<path fill-rule="evenodd" clip-rule="evenodd" d="M113.232 5.56261L111.365 4.48486L110.461 6.95299L113.232 8.55291L114.691 9.39526C114.939 9.53812 115.068 9.53551 115.311 9.39526L115.963 9.01876C115.961 8.51926 116.105 8.0379 116.363 7.62776L116.134 6.25204C115.704 6.99596 114.753 7.25084 114.008 6.82141C113.537 6.54937 113.262 6.06789 113.232 5.56261Z" fill="#23B7BC"/>
<path fill-rule="evenodd" clip-rule="evenodd" d="M116.363 7.62781C116.105 8.03795 115.961 8.51931 115.963 9.0188L115.311 9.3953C115.068 9.53556 114.939 9.53817 114.692 9.3953L113.232 8.55295L116.363 7.62781Z" fill="#26C1C1"/>
<path fill-rule="evenodd" clip-rule="evenodd" d="M112.161 6.66157L113.232 5.56261L111.365 4.48486L110.461 6.95299L113.232 8.55291L112.161 6.66157Z" fill="#29CCC6"/>
<path fill-rule="evenodd" clip-rule="evenodd" d="M108.203 5.64965L110.461 6.95299L112.16 6.66157L113.232 5.56261L111.365 4.48486L109.325 4.63871L108.203 5.64965Z" fill="#26C1C1"/>
<path fill-rule="evenodd" clip-rule="evenodd" d="M111.365 4.48498L109.498 3.40723L109.325 4.63882L107.748 3.89099L108.203 5.64977L110.461 6.9531L111.365 4.48498Z" fill="#29CDC6"/>
<path fill-rule="evenodd" clip-rule="evenodd" d="M107.748 3.89085L109.325 4.63867L111.365 4.48483L109.498 3.40708L107.957 3.00012C107.978 3.29948 107.911 3.60872 107.748 3.89085Z" fill="#2CD7CB"/>
<path fill-rule="evenodd" clip-rule="evenodd" d="M109.325 4.63867L109.498 3.40708L107.957 3.00012C107.978 3.29948 107.911 3.60872 107.748 3.89085C107.539 4.25314 107.206 4.49945 106.833 4.60726L108.203 5.64962L109.325 4.63867Z" fill="#2FE1D0"/>
<path fill-rule="evenodd" clip-rule="evenodd" d="M108.203 5.64977L107.748 3.89099C107.539 4.25328 107.206 4.4996 106.834 4.60741L106.351 6.22492C107.011 6.23466 107.662 6.03378 108.203 5.64977Z" fill="#33F2D7"/>
<path fill-rule="evenodd" clip-rule="evenodd" d="M104.844 5.80824C105.32 6.0827 105.838 6.21728 106.35 6.22484C107.01 6.23459 107.662 6.0337 108.203 5.64969L106.833 4.60733C106.441 4.72096 106.004 4.68074 105.622 4.46029C104.878 4.03065 104.623 3.07909 105.052 2.33476C105.493 1.57135 106.507 1.32741 107.247 1.80693C107.676 2.08506 107.924 2.53046 107.957 3.00019L109.325 2.05008C109.084 1.38535 108.617 0.798704 107.957 0.417436C106.468 -0.441962 104.564 0.0681753 103.705 1.55669C102.846 3.04525 103.356 4.94881 104.844 5.80824Z" fill="#35F8DA"/>
<path fill-rule="evenodd" clip-rule="evenodd" d="M109.325 2.05005L107.957 3.00016C107.978 3.29952 107.911 3.60876 107.748 3.89089L109.325 4.63871L109.498 3.40712C109.542 2.94508 109.481 2.48114 109.325 2.05005Z" fill="#32ECD5"/>
<path fill-rule="evenodd" clip-rule="evenodd" d="M106.35 6.22485L106.833 4.60733C106.441 4.72096 106.004 4.68074 105.622 4.46029C104.878 4.03065 104.623 3.07909 105.052 2.33476C105.493 1.57135 106.507 1.32741 107.247 1.80693C107.676 2.08506 107.924 2.53046 107.957 3.00019L109.498 3.40715C109.542 2.94511 109.481 2.48117 109.325 2.05008C109.084 1.38535 108.617 0.798704 107.957 0.417436C106.468 -0.441962 104.564 0.0681753 103.705 1.55669C102.846 3.04525 103.356 4.94881 104.844 5.80824C105.32 6.08271 105.838 6.21728 106.35 6.22485Z" fill="#34F5D9"/>
<path fill-rule="evenodd" clip-rule="evenodd" d="M103.705 1.55669C104.564 0.0681753 106.468 -0.441962 107.957 0.417436C108.617 0.798704 109.084 1.38535 109.325 2.05008L107.957 3.00019C107.924 2.53046 107.676 2.08506 107.247 1.80693C106.507 1.32741 105.493 1.57135 105.052 2.33476C104.623 3.07909 104.878 4.03065 105.622 4.46029C106.004 4.68074 106.441 4.72096 106.833 4.60733L106.35 6.22485C105.838 6.21728 105.32 6.08271 104.844 5.80824C103.356 4.94881 102.846 3.04525 103.705 1.55669Z" fill="#37FFDE"/>
<path fill-rule="evenodd" clip-rule="evenodd" d="M114.09 4.0814C114.542 3.85656 115.094 3.85497 115.564 4.12597C115.845 4.2882 116.056 4.52487 116.187 4.79668L118.286 4.63867L116.006 3.34434L114.351 3.13538L114.09 4.0814Z" fill="#23B8BD"/>
<path fill-rule="evenodd" clip-rule="evenodd" d="M113.725 2.05005L112.869 3.37622L114.091 4.08144C114.542 3.8566 115.095 3.85502 115.564 4.12602L116.006 3.34438L113.725 2.05005Z" fill="#28CAC5"/>
<path fill-rule="evenodd" clip-rule="evenodd" d="M114.091 4.08144L114.352 3.13542L116.006 3.34438L113.725 2.05005L112.869 3.37622L114.091 4.08144Z" fill="#2BD2C9"/>
<path fill-rule="evenodd" clip-rule="evenodd" d="M112.407 3.00027L112.869 3.37632L114.091 4.08154L114.352 3.13552L113.725 2.05015L112.673 1.85107C112.747 2.12768 112.583 2.41206 112.306 2.4863L112.407 3.00027Z" fill="#2EE1CF"/>
<path fill-rule="evenodd" clip-rule="evenodd" d="M113.64 1.48419C113.381 0.752476 112.579 0.265372 111.769 0.482213C110.957 0.722581 110.445 1.55284 110.669 2.38789C110.854 3.08024 111.493 3.52201 112.16 3.53514C112.399 3.53985 112.642 3.48959 112.869 3.37619L113.725 2.05001C113.733 1.85147 113.702 1.66071 113.64 1.48419ZM112.673 1.85094C112.747 2.12755 112.583 2.41192 112.306 2.48616C112.029 2.56013 111.745 2.396 111.671 2.11941C111.597 1.84283 111.761 1.55842 112.038 1.48419C112.314 1.41021 112.599 1.57439 112.673 1.85094Z" fill="#31EAD4"/>
<path fill-rule="evenodd" clip-rule="evenodd" d="M110.669 2.38789C110.854 3.08024 111.493 3.52201 112.16 3.53514C112.399 3.53985 112.642 3.48959 112.869 3.37619L112.407 3.00013L112.306 2.48616C112.029 2.56013 111.745 2.396 111.671 2.11941C111.597 1.84283 111.761 1.55842 112.038 1.48419C112.314 1.41021 112.599 1.57439 112.673 1.85094L113.64 1.48419C113.381 0.752476 112.579 0.265372 111.769 0.482213C110.957 0.722581 110.445 1.55284 110.669 2.38789Z" fill="#35F6D9"/>
<path fill-rule="evenodd" clip-rule="evenodd" d="M112.038 1.48419C112.314 1.41021 112.599 1.57439 112.673 1.85094L113.725 2.05002C113.733 1.85147 113.702 1.66071 113.64 1.48419C113.381 0.752476 112.579 0.265372 111.769 0.482213C110.957 0.722581 110.445 1.55284 110.669 2.38789C110.854 3.08024 111.493 3.52201 112.16 3.53514L112.407 3.00013L112.306 2.48616C112.029 2.56013 111.745 2.396 111.671 2.11941C111.597 1.84283 111.761 1.55842 112.038 1.48419Z" fill="#34F2D8"/>
<path fill-rule="evenodd" clip-rule="evenodd" d="M111.769 0.482213C112.579 0.265372 113.381 0.752476 113.64 1.48419L112.673 1.85094C112.599 1.57439 112.314 1.41021 112.038 1.48419C111.761 1.55842 111.597 1.84283 111.671 2.11941C111.745 2.396 112.029 2.56013 112.306 2.48616L112.407 3.00013L112.16 3.53514C111.493 3.52201 110.854 3.08024 110.669 2.38789C110.445 1.55284 110.957 0.722581 111.769 0.482213Z" fill="#37FFDE"/>
</svg>
