<svg width="200" height="178" viewBox="0 0 200 178" fill="none" xmlns="http://www.w3.org/2000/svg">
<path fill-rule="evenodd" clip-rule="evenodd" d="M114.259 61.3984C113.217 57.5122 109.219 55.2066 105.333 56.2472C101.343 57.3176 99.3701 61.2997 100.182 65.1693C101.248 69.1459 105.239 71.1541 109.104 70.3205C112.989 69.2787 115.299 65.284 114.259 61.3984Z" fill="#21AFB8"/>
<path fill-rule="evenodd" clip-rule="evenodd" d="M77.5939 36.6179C78.6003 34.877 80.8291 34.282 82.5708 35.2874C84.3111 36.2934 84.9086 38.5193 83.9048 40.2607C82.899 42.0025 80.6701 42.5999 78.928 41.5948C77.1861 40.5888 76.5883 38.36 77.5939 36.6179Z" fill="#23B8BD"/>
<path fill-rule="evenodd" clip-rule="evenodd" d="M77.6986 85.6424L62.3087 93.5686C63.3838 94.2301 64.0447 95.4 64.0447 96.6671C64.0431 97.9686 63.3476 99.1732 62.2197 99.8226L56.0796 103.352C54.9702 104.006 54.2862 105.199 54.2866 106.489V121.998V158.841C54.2878 165.32 57.7348 171.313 63.3332 174.575C68.9312 177.836 75.8427 177.878 81.4798 174.686L99.5641 164.438L153.758 133.728L190.765 112.757C196.47 109.523 199.999 103.468 200 96.909C199.999 90.3508 196.473 84.2948 190.768 81.0606L149.894 57.865L127.745 45.2958L116.469 47.9057C119.088 49.4764 121.333 51.673 122.935 54.3412C123.872 55.9032 124.589 57.6267 125.031 59.4809C127.05 68.9025 121.344 78.3528 111.932 80.8754C107.097 82.1704 102.194 81.3918 98.1682 79.086L86.8093 85.6424C83.9921 87.2684 80.5158 87.2684 77.6986 85.6424Z" fill="#1EA5B4"/>
<path fill-rule="evenodd" clip-rule="evenodd" d="M64.0447 96.6672L80.0821 102.72L54.2866 121.998V106.489C54.2862 105.199 54.9702 104.007 56.0796 103.352L62.2197 99.8227C63.3476 99.1734 64.0431 97.9687 64.0447 96.6672Z" fill="#1FA7B5"/>
<path d="M64.7731 78.1699L62.3091 93.5681C63.3842 94.2296 64.0451 95.3995 64.0451 96.6666L80.0825 102.72L86.8097 85.6419C83.9925 87.2679 80.5162 87.2679 77.699 85.6419L64.7731 78.1699Z" fill="#21AFB8"/>
<path fill-rule="evenodd" clip-rule="evenodd" d="M56.2869 90.0926L62.3097 93.5681L77.6996 85.6419L64.7737 78.1699L54.2876 82.8661L53.3271 90.0926C54.4043 89.4708 55.244 89.4905 56.2869 90.0926Z" fill="#1EA5B4"/>
<path fill-rule="evenodd" clip-rule="evenodd" d="M58.4491 74.5142L64.773 78.1698L62.309 93.568L56.2862 90.0925C55.2433 89.4904 54.4036 89.4707 53.3265 90.0925L45.966 94.3399L38.6875 81.7145L51.1635 74.5142C53.4173 73.2133 56.1953 73.2134 58.4491 74.5142Z" fill="#23B6BC"/>
<path fill-rule="evenodd" clip-rule="evenodd" d="M58.4502 74.5142L64.7741 78.1698L54.288 82.866L51.1646 74.5142C53.4183 73.2133 56.1964 73.2134 58.4502 74.5142Z" fill="#20AEB8"/>
<path fill-rule="evenodd" clip-rule="evenodd" d="M51.1639 74.5148L38.688 81.7151L34.9028 94.4756L45.9665 94.3405L53.3269 90.093L54.2874 82.8665L51.1639 74.5148Z" fill="#2ACFC7"/>
<path fill-rule="evenodd" clip-rule="evenodd" d="M29.7491 89.3223C32.1797 89.9752 34.2058 91.8701 34.9038 94.4752C35.3538 96.1548 35.178 97.8544 34.5196 99.3272L38.689 103.351L45.4606 101.074C46.0389 98.9224 46.2275 96.6434 45.9675 94.34L38.689 81.7146C35.8677 79.6325 32.4655 78.372 28.8877 78.1699L29.7491 89.3223Z" fill="#2DD9CC"/>
<path fill-rule="evenodd" clip-rule="evenodd" d="M38.6895 103.352L34.5201 99.3277C33.655 101.263 31.9566 102.806 29.7496 103.398C25.8633 104.438 21.8688 102.133 20.8275 98.2466C19.7866 94.3606 22.093 90.3665 25.9787 89.3245C27.2602 88.9812 28.5539 89.0017 29.7496 89.3229C32.1802 89.9757 34.2063 91.8706 34.9043 94.4757L38.6895 81.7152C35.8682 79.633 32.466 78.3725 28.8882 78.1704C27.0046 78.0641 25.0723 78.2511 23.1505 78.766C13.4343 81.3697 7.66942 91.3585 10.2725 101.075C12.8761 110.791 22.8647 116.56 32.5813 113.956C35.7761 113.1 38.5435 111.445 40.7267 109.264L38.6895 103.352Z" fill="#34F3D8"/>
<path fill-rule="evenodd" clip-rule="evenodd" d="M28.8882 78.1704C27.0046 78.0641 25.0723 78.2511 23.1505 78.766C13.4343 81.3697 7.66942 91.3585 10.2725 101.075C12.8761 110.791 22.8647 116.56 32.5813 113.956C35.7761 113.1 38.5435 111.445 40.7267 109.264C42.9931 107 44.6298 104.169 45.4611 101.075C46.0394 98.9229 46.228 96.644 45.968 94.3406L34.9043 94.4757C35.3543 96.1553 35.1785 97.8549 34.5201 99.3277C33.655 101.263 31.9566 102.806 29.7496 103.398C25.8633 104.438 21.8688 102.133 20.8275 98.2466C19.7866 94.3606 22.093 90.3665 25.9787 89.3245C27.2602 88.9812 28.5539 89.0017 29.7496 89.3229L28.8882 78.1704Z" fill="#31EBD4"/>
<path fill-rule="evenodd" clip-rule="evenodd" d="M38.6895 103.352L34.5201 99.3277C33.655 101.263 31.9566 102.806 29.7496 103.398C25.8633 104.438 21.8688 102.133 20.8275 98.2466C19.7866 94.3606 22.093 90.3665 25.9787 89.3245C27.2602 88.9812 28.5539 89.0017 29.7496 89.3229L28.8882 78.1704C27.0046 78.0641 25.0723 78.2511 23.1505 78.766C13.4343 81.3697 7.66942 91.3585 10.2725 101.075C12.8761 110.791 22.8647 116.56 32.5813 113.956C35.7761 113.1 38.5436 111.445 40.7267 109.264C42.9931 107 44.6298 104.169 45.4611 101.075L38.6895 103.352Z" fill="#34F6D9"/>
<path fill-rule="evenodd" clip-rule="evenodd" d="M23.1505 78.766C25.0723 78.2511 27.0046 78.0641 28.8882 78.1704L29.7496 89.3229C28.5539 89.0017 27.2602 88.9812 25.9787 89.3245C22.093 90.3665 19.7866 94.3606 20.8275 98.2466C21.8688 102.133 25.8633 104.438 29.7496 103.398C31.9566 102.806 33.655 101.263 34.5201 99.3277L38.6895 103.352L40.7267 109.264C38.5435 111.445 35.7761 113.1 32.5813 113.956C22.8647 116.56 12.8761 110.791 10.2725 101.075C7.66942 91.3585 13.4343 81.3697 23.1505 78.766Z" fill="#37FFDE"/>
<path fill-rule="evenodd" clip-rule="evenodd" d="M101.608 45.9552C106.767 44.4197 112.13 45.3038 116.468 47.9054C119.087 49.4761 121.333 51.6727 122.934 54.3409L127.745 45.2955L105.333 32.5768L101.608 45.9552Z" fill="#20ABB6"/>
<path fill-rule="evenodd" clip-rule="evenodd" d="M90.2129 43.9068L101.609 45.9552C106.768 44.4197 112.131 45.3038 116.469 47.9054L127.746 45.2955L105.334 32.5768L90.5896 33.6865C92.1062 36.8343 92.0909 40.6534 90.2129 43.9068Z" fill="#22B4BB"/>
<path fill-rule="evenodd" clip-rule="evenodd" d="M105.334 32.5768L89.3165 23.487L86.2148 28.9762C88.1874 30.1156 89.6705 31.7776 90.5901 33.6865C92.1067 36.8343 92.0914 40.6535 90.2134 43.9069L91.8204 53.5682C94.0222 50.0708 97.4127 47.3108 101.609 45.9552L105.334 32.5768Z" fill="#20A9B6"/>
<path fill-rule="evenodd" clip-rule="evenodd" d="M69.8355 60.0655L91.8196 53.5684C94.0214 50.071 97.4119 47.311 101.609 45.9554L90.2126 43.9071C87.1945 49.1314 80.5115 50.9214 75.2855 47.9056C71.9775 45.9952 70.0423 42.6138 69.8355 39.0654L62.3091 46.7831L69.8355 60.0655Z" fill="#23B8BD"/>
<path fill-rule="evenodd" clip-rule="evenodd" d="M69.8361 39.0651L56.7257 31.4963L50.3735 48.8294L69.8361 60.0652L80.083 65.9809C81.8208 66.9842 82.725 66.9659 84.431 65.9809L89.0123 63.3368C88.9996 59.8289 90.0068 56.4485 91.8201 53.5681L90.2132 43.9068C87.195 49.1311 80.512 50.9211 75.2861 47.9053C71.9781 45.9948 70.0429 42.6135 69.8361 39.0651Z" fill="#23B7BC"/>
<path fill-rule="evenodd" clip-rule="evenodd" d="M91.8195 53.568C90.0061 56.4483 88.999 59.8288 89.0117 63.3367L84.4304 65.9807C82.7243 66.9657 81.8202 66.984 80.0824 65.9807L69.8354 60.0651L91.8195 53.568Z" fill="#26C1C1"/>
<path fill-rule="evenodd" clip-rule="evenodd" d="M62.3097 46.7828L69.8361 39.0651L56.7257 31.4963L50.3735 48.8294L69.8361 60.0652L62.3097 46.7828Z" fill="#29CCC6"/>
<path fill-rule="evenodd" clip-rule="evenodd" d="M34.519 39.6763L50.3737 48.8294L62.3099 46.7828L69.8363 39.0651L56.7259 31.4963L42.3985 32.5767L34.519 39.6763Z" fill="#26C1C1"/>
<path fill-rule="evenodd" clip-rule="evenodd" d="M56.7252 31.4965L43.6147 23.9277L42.3977 32.5769L31.3237 27.3251L34.5183 39.6766L50.373 48.8296L56.7252 31.4965Z" fill="#29CDC6"/>
<path fill-rule="evenodd" clip-rule="evenodd" d="M31.3237 27.3247L42.3977 32.5766L56.7252 31.4962L43.6147 23.9274L32.7894 21.0694C32.9358 23.1717 32.4681 25.3434 31.3237 27.3247Z" fill="#2CD7CB"/>
<path fill-rule="evenodd" clip-rule="evenodd" d="M42.398 32.5766L43.615 23.9274L32.7896 21.0694C32.936 23.1717 32.4683 25.3434 31.324 27.3247C29.8545 29.869 27.5165 31.5989 24.9009 32.356L34.5186 39.6762L42.398 32.5766Z" fill="#2FE1D0"/>
<path fill-rule="evenodd" clip-rule="evenodd" d="M34.5198 39.6767L31.3252 27.3253C29.8557 29.8695 27.5177 31.5994 24.9021 32.3565L21.5093 43.7159C26.1446 43.7843 30.7189 42.3736 34.5198 39.6767Z" fill="#33F2D7"/>
<path fill-rule="evenodd" clip-rule="evenodd" d="M10.9321 40.79C14.2716 42.7175 17.9079 43.6626 21.5075 43.7157C26.1428 43.7841 30.7171 42.3733 34.518 39.6765L24.9003 32.3563C22.1435 33.1543 19.0783 32.8718 16.3964 31.3236C11.1694 28.3063 9.37757 21.6238 12.3942 16.3965C15.4882 11.0353 22.6113 9.3221 27.8051 12.6897C30.8176 14.6429 32.5594 17.7708 32.7891 21.0697L42.3974 14.3972C40.707 9.72903 37.4256 5.60912 32.7891 2.93156C22.3353 -3.1038 8.96715 0.47878 2.93139 10.9323C-3.10354 21.3861 0.478517 34.7544 10.9321 40.79Z" fill="#35F8DA"/>
<path fill-rule="evenodd" clip-rule="evenodd" d="M42.3977 14.3972L32.7894 21.0696C32.9358 23.172 32.4681 25.3437 31.3237 27.325L42.3977 32.5768L43.6147 23.9276C43.9211 20.6828 43.494 17.4247 42.3977 14.3972Z" fill="#32ECD5"/>
<path fill-rule="evenodd" clip-rule="evenodd" d="M21.5075 43.7157L24.9003 32.3563C22.1435 33.1543 19.0783 32.8718 16.3964 31.3236C11.1694 28.3063 9.37757 21.6238 12.3942 16.3965C15.4882 11.0353 22.6113 9.3221 27.8051 12.6897C30.8176 14.6429 32.5594 17.7708 32.7891 21.0697L43.6144 23.9276C43.9208 20.6828 43.4937 17.4247 42.3974 14.3972C40.707 9.72903 37.4256 5.60912 32.7891 2.93156C22.3353 -3.1038 8.96715 0.47878 2.93139 10.9323C-3.10354 21.3861 0.478517 34.7544 10.9321 40.79C14.2716 42.7175 17.9079 43.6626 21.5075 43.7157Z" fill="#34F5D9"/>
<path fill-rule="evenodd" clip-rule="evenodd" d="M2.93139 10.9323C8.96715 0.47878 22.3353 -3.1038 32.7891 2.93156C37.4256 5.60912 40.707 9.72903 42.3974 14.3972L32.7891 21.0697C32.5594 17.7708 30.8176 14.6429 27.8051 12.6897C22.6113 9.3221 15.4882 11.0353 12.3942 16.3965C9.37757 21.6238 11.1694 28.3063 16.3964 31.3236C19.0783 32.8718 22.1435 33.1543 24.9003 32.3563L21.5075 43.7157C17.9079 43.6626 14.2716 42.7175 10.9321 40.79C0.478517 34.7544 -3.10354 21.3861 2.93139 10.9323Z" fill="#37FFDE"/>
<path fill-rule="evenodd" clip-rule="evenodd" d="M75.8647 28.6633C79.0352 27.0844 82.9161 27.0732 86.2134 28.9764C88.186 30.1157 89.669 31.7777 90.5887 33.6866L105.333 32.577L89.315 23.4871L77.6984 22.0197L75.8647 28.6633Z" fill="#23B8BD"/>
<path fill-rule="evenodd" clip-rule="evenodd" d="M73.2977 14.3972L67.2856 23.7106L75.8651 28.6632C79.0356 27.0842 82.9164 27.0731 86.2137 28.9763L89.3154 23.487L73.2977 14.3972Z" fill="#28CAC5"/>
<path fill-rule="evenodd" clip-rule="evenodd" d="M75.8651 28.6632L77.6987 22.0195L89.3154 23.487L73.2977 14.3972L67.2856 23.7106L75.8651 28.6632Z" fill="#2BD2C9"/>
<path fill-rule="evenodd" clip-rule="evenodd" d="M64.0455 21.0699L67.2863 23.7109L75.8658 28.6635L77.6994 22.0198L73.2984 14.3975L65.9096 12.9994C66.4298 14.942 65.2761 16.9391 63.334 17.4604L64.0455 21.0699Z" fill="#2EE1CF"/>
<path fill-rule="evenodd" clip-rule="evenodd" d="M72.7004 10.4237C70.8813 5.28504 65.2501 1.86423 59.5632 3.38705C53.8614 5.0751 50.2659 10.9058 51.8364 16.7702C53.1396 21.6324 57.6226 24.7349 62.3096 24.8271C63.9879 24.8601 65.6924 24.5072 67.2865 23.7108L73.2985 14.3974C73.3562 13.003 73.1392 11.6634 72.7004 10.4237ZM65.9097 12.9993C66.4299 14.9419 65.2763 16.939 63.3341 17.4603C61.3915 17.9798 59.3938 16.8271 58.8731 14.8847C58.3533 12.9423 59.5068 10.945 61.4487 10.4237C63.3911 9.9042 65.3887 11.0572 65.9097 12.9993Z" fill="#31EAD4"/>
<path fill-rule="evenodd" clip-rule="evenodd" d="M51.8364 16.7702C53.1396 21.6324 57.6226 24.7349 62.3096 24.8271C63.9879 24.8601 65.6924 24.5072 67.2865 23.7108L64.0456 21.0698L63.3341 17.4603C61.3915 17.9798 59.3938 16.8271 58.8731 14.8847C58.3533 12.9423 59.5068 10.945 61.4487 10.4237C63.3911 9.9042 65.3887 11.0572 65.9097 12.9993L72.7004 10.4237C70.8813 5.28504 65.2501 1.86423 59.5632 3.38705C53.8614 5.0751 50.2659 10.9058 51.8364 16.7702Z" fill="#35F6D9"/>
<path fill-rule="evenodd" clip-rule="evenodd" d="M61.4487 10.4237C63.3911 9.9042 65.3887 11.0572 65.9097 12.9993L73.2985 14.3974C73.3562 13.003 73.1392 11.6634 72.7004 10.4237C70.8813 5.28504 65.2501 1.86423 59.5632 3.38705C53.8614 5.0751 50.2659 10.9058 51.8364 16.7702C53.1396 21.6324 57.6226 24.7349 62.3096 24.8271L64.0456 21.0698L63.3341 17.4603C61.3915 17.9798 59.3938 16.8271 58.8731 14.8847C58.3533 12.9423 59.5068 10.945 61.4487 10.4237Z" fill="#34F2D8"/>
<path fill-rule="evenodd" clip-rule="evenodd" d="M59.5632 3.38705C65.2501 1.86423 70.8813 5.28504 72.7004 10.4237L65.9097 12.9993C65.3887 11.0572 63.3911 9.9042 61.4487 10.4237C59.5068 10.945 58.3533 12.9423 58.8731 14.8847C59.3938 16.8271 61.3915 17.9798 63.3341 17.4603L64.0456 21.0698L62.3096 24.8271C57.6226 24.7349 53.1396 21.6324 51.8364 16.7702C50.2659 10.9058 53.8614 5.0751 59.5632 3.38705Z" fill="#37FFDE"/>
</svg>
